<?xml version="1.0" encoding="utf-8"?>
<!-- Generator: Adobe Illustrator 16.0.3, SVG Export Plug-In . SVG Version: 6.00 Build 0)  -->
<!DOCTYPE svg PUBLIC "-//W3C//DTD SVG 1.1//EN" "http://www.w3.org/Graphics/SVG/1.1/DTD/svg11.dtd">
<svg version="1.1" id="Layer_1" xmlns="http://www.w3.org/2000/svg" xmlns:xlink="http://www.w3.org/1999/xlink" x="0px" y="0px"
	 width="195.895px" height="195.895px" viewBox="0 0 195.895 195.895" enable-background="new 0 0 195.895 195.895"
	 xml:space="preserve">
<g>
	<circle opacity="0.7" fill="#FFFFFF" cx="97.947" cy="97.947" r="93.251"/>
	<g>
		<path fill="#ED5A24" d="M95.75,91.605c7.776,0,14.102-8.214,14.102-18.309c0-10.096-6.325-18.309-14.102-18.309
			c-7.775,0-14.103,8.213-14.103,18.309C81.647,83.391,87.975,91.604,95.75,91.605z"/>
		<path fill="#ED5A24" d="M97.947,0C43.853,0,0,43.853,0,97.947s43.853,97.947,97.947,97.947s97.947-43.853,97.947-97.947
			S152.042,0,97.947,0z M100.199,142.393H57.604c-3.836,0-6.96-2.482-6.96-6.322c0-17.33,10.015-32.504,25.365-39.989
			c-5.249-6.002-8.282-14.187-8.282-22.822c0-17.771,12.568-32.21,28.021-32.21c15.451,0,28.02,14.467,28.02,32.237
			c0,8.621-3.04,16.843-8.282,22.854c4.223,2.051,8.069,4.756,11.511,8.074c1.335,1.282,2.063,3.014,2.098,4.873
			c0.037,1.861-0.561,3.62-1.855,4.96c-1.325,1.374-1.979,2.119-4.979,2.119v-0.023c-2,0-3.548-0.905-4.855-2.158
			c-5.834-5.626-13.464-9.137-21.575-9.137c-14.719,0-27.302,10.545-30.478,23.545h34.85c3.838,0,6.961,3.163,6.961,7.001
			S104.037,142.393,100.199,142.393z M149.995,142.393h-8.737v10.43c0,3.496-3.01,6.337-6.503,6.337
			c-3.49,0-6.497-2.841-6.497-6.337v-10.43h-10.486c-3.494,0-6.338-2.505-6.338-5.999c0-3.493,2.844-6.001,6.338-6.001h10.486
			v-9.794c0-3.493,3.003-6.336,6.497-6.336c3.493,0,6.503,2.843,6.503,6.336v9.794h8.739c3.493,0,6.334,2.508,6.334,6.001
			C156.331,139.888,153.49,142.393,149.995,142.393z"/>
	</g>
</g>
</svg>
