<?xml version="1.0" encoding="utf-8"?>
<!-- Generator: Adobe Illustrator 16.0.3, SVG Export Plug-In . SVG Version: 6.00 Build 0)  -->
<!DOCTYPE svg PUBLIC "-//W3C//DTD SVG 1.1//EN" "http://www.w3.org/Graphics/SVG/1.1/DTD/svg11.dtd">
<svg version="1.1" id="Layer_1" xmlns="http://www.w3.org/2000/svg" xmlns:xlink="http://www.w3.org/1999/xlink" x="0px" y="0px"
	 width="195.895px" height="195.895px" viewBox="0 0 195.895 195.895" enable-background="new 0 0 195.895 195.895"
	 xml:space="preserve">
<g>
	<path fill="#7AC543" d="M97.947,0C43.853,0,0,43.853,0,97.947s43.853,97.947,97.947,97.947s97.947-43.853,97.947-97.947
		S152.042,0,97.947,0z M97.947,171.833C57.173,171.833,24,138.69,24,97.916s33.173-73.994,73.947-73.994
		c33.48,0,61.818,21.901,70.892,52.901h-27.541c-7.953-16-24.372-27.07-43.351-27.07c-26.763,0-48.458,21.563-48.458,48.326
		c0,26.762,21.695,48.928,48.458,48.928c16.848,0,31.683-8.184,40.366-21.184h28.06C155.313,152.823,128.815,171.833,97.947,171.833
		z"/>
</g>
</svg>
