<?xml version="1.0" encoding="utf-8"?>
<!-- Generator: Adobe Illustrator 16.0.3, SVG Export Plug-In . SVG Version: 6.00 Build 0)  -->
<!DOCTYPE svg PUBLIC "-//W3C//DTD SVG 1.1//EN" "http://www.w3.org/Graphics/SVG/1.1/DTD/svg11.dtd">
<svg version="1.1" id="Layer_1" xmlns="http://www.w3.org/2000/svg" xmlns:xlink="http://www.w3.org/1999/xlink" x="0px" y="0px"
	 width="195.895px" height="195.895px" viewBox="0 0 195.895 195.895" enable-background="new 0 0 195.895 195.895"
	 xml:space="preserve">
<g>
	<circle opacity="0.7" fill="#FFFFFF" cx="97.95" cy="97.947" r="92.751"/>
	<g>
		<path fill="#ED5A24" d="M97.947,0C43.853,0,0,43.853,0,97.947s43.853,97.947,97.947,97.947s97.947-43.853,97.947-97.947
			S152.042,0,97.947,0z M152.854,152.696H43.043c-8.551,0-14.914-6.806-14.914-15.355V71.167c0-8.364,6-15.187,15-15.479V50.53
			c0-4.127,2.725-7.834,6.85-7.834h24.02c4.125,0,8.131,3.707,8.131,7.834v5.166h70.729c8.549,0,15.271,6.921,15.271,15.471v66.174
			C168.129,145.891,161.406,152.696,152.854,152.696z"/>
		<path fill="#ED5A24" d="M97.953,74.601c-16.354,0-29.656,13.304-29.656,29.654c0,16.352,13.303,29.65,29.656,29.65
			c16.35,0,29.65-13.299,29.65-29.65C127.604,87.904,114.303,74.601,97.953,74.601z"/>
	</g>
</g>
</svg>
