<?xml version="1.0" encoding="utf-8"?>
<!-- Generator: Adobe Illustrator 16.0.3, SVG Export Plug-In . SVG Version: 6.00 Build 0)  -->
<!DOCTYPE svg PUBLIC "-//W3C//DTD SVG 1.1//EN" "http://www.w3.org/Graphics/SVG/1.1/DTD/svg11.dtd">
<svg version="1.1" id="Layer_1" xmlns="http://www.w3.org/2000/svg" xmlns:xlink="http://www.w3.org/1999/xlink" x="0px" y="0px"
	 width="195.895px" height="195.895px" viewBox="0 0 195.895 195.895" enable-background="new 0 0 195.895 195.895"
	 xml:space="preserve">
<g>
	<circle opacity="0.7" fill="#FFFFFF" cx="97.95" cy="97.947" r="92.751"/>
	<g>
		<path fill="#ED5A24" d="M97.947,0C43.853,0,0,43.853,0,97.947s43.853,97.947,97.947,97.947s97.947-43.853,97.947-97.947
			S152.042,0,97.947,0z M150.516,136.235c0,10.919-12.758,19.894-28.313,19.894s-28.29-8.825-28.29-19.894
			c0-10.918,12.829-19.892,28.532-19.892c5.385,0,11.07,1.195,15.07,2.991v-52.55h-57v69.301c0,10.918-12.907,19.893-28.46,19.893
			c-15.555,0-28.365-8.824-28.365-19.893c0-10.918,12.938-19.892,28.643-19.892c5.383,0,10.182,1.196,15.182,2.991v-79.4h13v0.131
			l56.6-0.131h13.4V136.235z"/>
	</g>
</g>
</svg>
