<?xml version="1.0" encoding="utf-8"?>
<!-- Generator: Adobe Illustrator 16.0.3, SVG Export Plug-In . SVG Version: 6.00 Build 0)  -->
<!DOCTYPE svg PUBLIC "-//W3C//DTD SVG 1.1//EN" "http://www.w3.org/Graphics/SVG/1.1/DTD/svg11.dtd">
<svg version="1.1" id="Layer_1" xmlns="http://www.w3.org/2000/svg" xmlns:xlink="http://www.w3.org/1999/xlink" x="0px" y="0px"
	 width="195.895px" height="195.895px" viewBox="0 0 195.895 195.895" enable-background="new 0 0 195.895 195.895"
	 xml:space="preserve">
<g>
	<circle opacity="0.7" fill="#FFFFFF" cx="97.95" cy="97.947" r="92.751"/>
	<g>
		<path fill="#ED5A24" d="M97.947,0C43.853,0,0,43.853,0,97.947s43.853,97.947,97.947,97.947s97.947-43.853,97.947-97.947
			S152.042,0,97.947,0z M141.04,78.089l-0.86-11.14c-0.527-6.201-2.362-10.734-5.517-13.337c-3.159-2.6-8.218-3.96-15.188-3.96
			c-5.06,0-8.497,0.861-10.319,2.659c-1.815,1.788-2.723,5.506-2.723,11.19l-0.214,69.698c0,5.538,0.921,9.309,2.757,11.101
			c1.841,1.797,5.439,2.79,10.781,2.79h7.629v10h-58v-10h7.965c4.59,0,8.141-1.048,9.961-2.938c1.814-1.887,3.074-5.602,3.074-10.96
			V63.207c0-5.405-1.283-9.023-3.146-10.857c-1.867-1.836-5.507-2.759-10.568-2.759c-6.973,0-12.125,1.301-15.277,3.9
			c-3.15,2.601-5.038,7.256-5.563,13.457L54.93,78.089H44.61l0.937-38h104.879l0.857,38H141.04z"/>
	</g>
</g>
</svg>
